<?xml version="1.0" encoding="UTF-8"?>
<svg id="Layer_1" data-name="Layer 1" xmlns="http://www.w3.org/2000/svg" viewBox="0 0 1080 1080">
  <defs>
    <style>
      .cls-1 {
        fill: #5400ff;
      }
    </style>
  </defs>
  <path class="cls-1" d="M277.4,470.26c0-80.35,65.09-145.51,145.4-145.51s145.36,65.16,145.36,145.51-65.09,145.47-145.36,145.47-145.4-65.12-145.4-145.47Z"/>
  <path class="cls-1" d="M600.79,712.95l75.86,76.6c-35.02,34.67-70.24,61.73-101.9,82.69-17.69,11.75-40.68,11.52-58.33-.35-58.25-39.28-153.6-115.96-224.19-241.17,71.96,57.98,179.91,64.62,257.57,2.03l49.82,47.32c2.89,5.86-11.17,15.15,1.17,32.87Z"/>
  <path class="cls-1" d="M876.4,295.77c-.66,91.79-18.51,267.8-141.02,427.29l-72.7-72.07c-17.73-12.34-27.02,1.76-32.84-1.13l-46.31-46.27c-1.21-2.73,20.69-32.87,23.93-39.47,52.59-106.04,6.95-236.49-101.59-283.42-19.68-8.51-39.67-12.73-60.52-17.22h-44.78c-87.85,8.55-166.6,83.12-182.33,169.88-11.64-55.95-14.8-105.96-14.64-145.94.08-23.66,15.93-44.39,38.77-50.56,75.35-20.38,176.87-39.12,297.16-37.72,121.85,1.41,224.03,23.07,299.38,45.6,22.49,6.72,37.64,27.53,37.48,51.03Z"/>
</svg>