<svg width="784" height="104" viewBox="0 0 784 104" fill="none" xmlns="http://www.w3.org/2000/svg">
<g clip-path="url(#clip0_2092_73)">
<path d="M11.2373 41.3594C11.2373 29.1062 21.1465 19.1616 33.3783 19.1616C45.6101 19.1616 55.5103 29.0972 55.5103 41.3594C55.5103 53.6217 45.6011 63.5482 33.3783 63.5482C21.1555 63.5482 11.2373 53.6127 11.2373 41.3594Z" fill="#7333F7"/>
<path d="M60.479 78.3796L72.0293 90.0669C66.6936 95.3581 61.331 99.4814 56.5154 102.68C53.8251 104.476 50.3188 104.44 47.6375 102.626C38.7685 96.6337 24.25 84.9374 13.5068 65.8389C24.4652 74.6785 40.9028 75.6936 52.7221 66.1443L60.3087 73.3579C60.7481 74.2473 58.6048 75.6666 60.488 78.3706L60.479 78.3796Z" fill="#7333F7"/>
<path d="M102.437 14.7506C102.338 28.7467 99.621 55.5978 80.9684 79.9247L69.9024 68.9291C67.2031 67.0516 65.7863 69.1986 64.9074 68.7584L57.8589 61.6975C57.6706 61.2843 61.0066 56.6848 61.4998 55.6787C69.5078 39.5087 62.5579 19.6106 46.0307 12.4509C43.0355 11.1483 39.9955 10.5105 36.821 9.82778H30.0056C16.6349 11.1304 4.63631 22.5033 2.24197 35.7357C0.457418 27.2015 -0.0268313 19.5747 7.14277e-05 13.475C0.00903901 9.86371 2.42132 6.70158 5.90074 5.76731C17.3793 2.65908 32.8304 -0.206602 51.1512 0.00899747C69.7051 0.224597 85.2639 3.53046 96.7334 6.96209C100.159 7.98619 102.464 11.1573 102.437 14.7417V14.7506Z" fill="#7333F7"/>
<path d="M166.385 54.6815L182.392 32.1154C183.226 30.9745 183.656 29.6809 183.656 28.3784C183.656 25.4139 181.056 23.177 177.612 23.177C174.742 23.177 171.918 25.0006 169.46 28.4502L158.278 43.8566L146.817 28.0011L146.737 27.9022C145.436 26.2493 143.015 23.177 139.365 23.177C136.433 23.177 133.321 24.8838 133.321 28.046C133.321 29.2587 133.752 30.4715 134.496 31.4327L150.422 54.1695L133.33 78.0741C132.344 79.3947 131.797 80.9308 131.797 82.4131C131.797 85.1889 134.379 87.3629 137.67 87.3629C141.984 87.3629 144.988 83.4731 145.974 82.1975L158.592 64.9944L171.057 82.44C171.98 83.6797 174.805 87.4437 178.859 87.4437C182.006 87.4437 184.562 85.2608 184.562 82.5748C184.562 80.7332 183.656 79.2869 182.876 78.2538L166.358 54.6726L166.385 54.6815Z" fill="#050505"/>
<path d="M223.454 23.0063H203.277C202.838 23.0063 200.56 23.0332 199.17 23.5633C197.403 24.2101 196.193 25.6833 195.655 27.8214C195.475 28.558 195.377 29.3934 195.377 30.2379V80.805C195.377 83.8414 197.403 87.1113 201.842 87.1113C206.281 87.1113 208.308 83.9402 208.308 80.805V64.4464H223.454C238.52 64.4464 245.532 57.637 245.532 43.0032C245.532 29.7258 238.107 22.9973 223.454 22.9973V23.0063ZM223.786 53.7023H208.299V33.7593H223.104C230.933 33.7593 232.511 37.4964 232.511 43.5242C232.511 50.4683 229.74 53.7113 223.777 53.7113L223.786 53.7023Z" fill="#050505"/>
<path d="M285.914 21.6588C262.732 21.6588 252.357 38.287 252.357 54.7714C252.357 63.7188 255.298 71.8936 260.625 77.7956C266.633 84.4433 275.377 87.9648 285.914 87.9648C309.095 87.9648 319.47 71.2917 319.47 54.7714C319.47 38.251 309.095 21.6588 285.914 21.6588ZM285.914 75.2623C275.861 75.2623 265.109 69.8813 265.109 54.7624C265.109 44.8089 270.57 34.1816 285.914 34.1816C301.257 34.1816 306.629 44.8178 306.629 54.7624C306.629 69.8813 295.93 75.2623 285.914 75.2623Z" fill="#050505"/>
<path d="M354.067 47.7913C347.297 46.9199 340.078 45.5724 340.078 40.4788C340.078 37.2089 344.355 33.6785 351.26 33.6785C355.529 33.6785 359.304 33.8132 362.237 35.4302C363.106 35.8973 363.896 36.4453 364.658 36.9753C364.963 37.182 365.25 37.3886 365.537 37.5772L365.608 37.6221C366.882 38.3049 368.469 38.9966 370.585 38.9966C373.455 38.9966 375.787 36.9304 375.787 34.3792C375.787 32.2321 374.415 30.8577 373.509 29.9594C368.873 25.1263 363.707 22.3325 351 22.3325C336.804 22.3325 326.895 30.175 326.895 41.4041C326.895 55.7595 340.634 59.2091 350.982 60.5566C358.085 61.3471 366.227 62.9731 366.227 68.5428C366.227 75.5228 358.111 76.2774 354.623 76.2774C347.835 76.2774 344.301 74.346 341.512 72.2529C340.391 71.2737 339.387 70.3484 338.499 69.5309L338.006 69.0818L337.89 68.9919C336.526 68.1116 335.145 67.33 333.271 67.33C329.747 67.33 327.568 70.2047 327.568 72.8727C327.568 75.0197 328.949 76.8883 330.159 78.2807C337.19 86.2489 345.028 87.8839 354.632 87.8839C369.814 87.8839 379.239 80.3828 379.239 68.3002C379.239 56.2176 371.007 50.1 354.067 47.8003V47.7913Z" fill="#050505"/>
<path d="M432.964 76.0259H402.797V61.7424H420.221C423.97 61.7424 425.673 58.9575 425.673 56.3703C425.673 53.7831 423.97 50.9983 420.221 50.9983H402.797V34.0917L431.7 34.0108C435.385 34.0108 437.322 31.226 437.322 28.4681C437.322 25.7102 435.394 23.0063 431.7 23.0063H408.994C407.371 23.0063 405.712 22.9613 404.097 22.9254C402.447 22.8805 400.744 22.8356 399.031 22.8356C391.256 22.8356 389.785 25.9708 389.785 31.765C389.785 37.5592 389.803 43.8566 389.83 49.9293C389.848 56.02 389.875 62.1107 389.875 68.2104C389.875 69.9352 389.83 71.7139 389.794 73.4297C389.749 75.1635 389.713 76.9511 389.713 78.6939C389.713 85.5302 391.543 87.2011 399.049 87.2011C404.707 87.2011 410.366 87.1832 416.015 87.1562C421.674 87.1382 427.323 87.1113 432.982 87.1113C436.632 87.1113 438.605 84.2097 438.605 81.4787C438.605 78.7478 436.677 76.0169 432.982 76.0169L432.964 76.0259Z" fill="#050505"/>
<path d="M491.549 23.0063H468.843C467.265 23.0063 465.624 22.9613 464.037 22.9254C462.405 22.8805 460.719 22.8356 459.051 22.8356C454.576 22.8356 452.11 23.6351 450.81 25.5036C450.191 26.393 449.832 27.471 449.724 28.8185C449.635 29.8695 449.635 31.244 449.635 32.6993C449.635 40.7304 449.653 48.7435 449.68 56.7566C449.698 64.7698 449.724 72.7829 449.724 80.814C449.724 83.8503 451.751 87.1203 456.19 87.1203C460.629 87.1203 462.656 83.9492 462.656 80.814V61.7514H480.08C483.828 61.7514 485.532 58.9665 485.532 56.3793C485.532 53.7921 483.828 51.0073 480.08 51.0073H462.656V34.1007L491.558 34.0198C495.244 34.0198 497.181 31.235 497.181 28.4771C497.181 25.7192 495.253 23.0152 491.558 23.0152L491.549 23.0063Z" fill="#050505"/>
<path d="M511.296 23.0063C506.794 23.0063 504.75 26.2763 504.75 29.3126V80.7242C504.75 83.9043 506.776 87.1114 511.296 87.1114C515.538 87.1114 517.761 83.8954 517.761 80.7242V29.3126C517.761 26.2763 515.735 23.0063 511.296 23.0063Z" fill="#050505"/>
<path d="M581.449 23.0063C576.984 23.0063 574.984 26.1684 574.984 29.3126V68.2374L549.014 28.1358C546.906 25.0186 543.14 23.0063 539.409 23.0063C534.45 23.0063 532.19 26.6266 532.19 29.9863V80.805C532.19 83.8414 534.217 87.1113 538.656 87.1113C543.095 87.1113 545.122 83.9402 545.122 80.805V45.6892L567.881 80.8769C570.33 84.605 575.011 87.1113 579.512 87.1113C585.261 87.1113 587.834 82.9251 587.834 78.7748V29.3036C587.834 26.1684 585.861 22.9973 581.458 22.9973L581.449 23.0063Z" fill="#050505"/>
<path d="M624.243 23.0063H610.397C602.29 23.0063 600.981 25.5396 600.981 31.5944V76.6638C600.981 77.2567 600.972 77.8047 600.963 78.3077C600.945 79.251 600.927 80.0685 600.99 80.868C601.088 82.2424 601.294 83.3653 601.985 84.3445C603.294 86.3119 605.859 87.1114 610.827 87.1114H626.78C638.653 87.1114 647.558 84.2098 653.253 78.4874C658.517 73.1962 661.18 65.3268 661.18 55.1038C661.18 34.1097 648.41 23.0063 624.243 23.0063ZM647.576 55.1038C647.576 69.2435 641.38 75.0108 626.18 75.0108H613.903V34.9452H624.664C640.295 34.9452 647.576 41.3503 647.576 55.1038Z" fill="#050505"/>
<path d="M717.093 76.0259H686.917V61.7424H704.341C708.089 61.7424 709.793 58.9575 709.793 56.3703C709.793 53.7831 708.089 50.9983 704.341 50.9983H686.917V34.0917L715.819 34.0108C719.505 34.0108 721.442 31.226 721.442 28.4681C721.442 25.7102 719.514 23.0063 715.819 23.0063H693.114C691.49 23.0063 689.831 22.9613 688.217 22.9254C686.567 22.8805 684.863 22.8356 683.151 22.8356C675.376 22.8356 673.905 25.9708 673.905 31.765C673.905 37.5592 673.923 43.8566 673.95 49.9293C673.968 56.02 673.995 62.1107 673.995 68.2104C673.995 69.9352 673.95 71.7139 673.914 73.4297C673.869 75.1635 673.833 76.9511 673.833 78.6939C673.833 85.5302 675.663 87.2011 683.169 87.2011C688.827 87.2011 694.486 87.1832 700.135 87.1562C705.794 87.1382 711.443 87.1113 717.102 87.1113C720.752 87.1113 722.725 84.2097 722.725 81.4787C722.725 78.7478 720.796 76.0169 717.102 76.0169L717.093 76.0259Z" fill="#050505"/>
<path d="M782.171 78.3257L772.046 61.2933C779.875 58.6881 784 52.3908 784 43.0122C784 29.3665 776.987 23.0063 761.922 23.0063H745.547C735.916 23.0063 733.853 23.8598 733.853 32.9509V80.8141C733.853 83.8504 735.88 87.1204 740.319 87.1204C744.758 87.1204 746.785 83.9493 746.785 80.8141V62.9372H758.048L769.356 81.7933C770.208 83.1497 772.782 87.2821 777.454 87.2821C780.467 87.2821 783.659 85.6022 783.659 82.5029C783.659 81.4968 783.489 80.7692 783.076 79.9517C782.834 79.3767 782.52 78.8916 782.171 78.3257ZM770.988 43.0122C770.988 49.606 768.513 52.1842 762.173 52.1842H746.776V33.7594H761.581C768.352 33.7594 770.988 36.3556 770.988 43.0122Z" fill="#050505"/>
</g>
<defs>
<clipPath id="clip0_2092_73">
<rect width="784" height="104" fill="white"/>
</clipPath>
</defs>
</svg>
